PathFileType	4	(X/Y/Z)	C:\Users\WrightLab\Desktop\Jo\P3_19.trc
DataRate	CameraRate	NumFrames	NumMarkers	Units	OrigDataRate	OrigDataStartFrame	OrigNumFrames
100.00	100.00	       10	19	mm	100.00	457	       731
Frame#	Time	Headset_Front			Headset_Back			Headset_Left			Headset_Right			Left_Shoulder			Right_Shoulder			Sternum			C7			Left Elbow			Right Elbow			Left Wrist			Right Wrist			Left ASIS			Right ASIS			S2			Left Knee			Right Knee			Left Ankle			Right Ankle			
		X1	Y1	Z1	X2	Y2	Z2	X3	Y3	Z3	X4	Y4	Z4	X5	Y5	Z5	X6	Y6	Z6	X7	Y7	Z7	X8	Y8	Z8	X9	Y9	Z9	X10	Y10	Z10	X11	Y11	Z11	X12	Y12	Z12	X13	Y13	Z13	X14	Y14	Z14	X15	Y15	Z15	X16	Y16	Z16	X17	Y17	Z17	X18	Y18	Z18	X19	Y19	Z19	

457	4.560	119.14449	1492.87183	1694.71936	261.98099	1575.65137	1567.94055				37.59927	1537.55164	1578.27075	355.51663	1363.25513	1487.21753	4.63355	1367.72668	1410.15686	159.58350	1238.75073	1568.65356	182.26717	1412.24622	1401.95947	424.93985	1029.71643	1462.61011	-92.27517	1024.50146	1407.34460	429.54581	844.87885	1556.58728	-102.24490	872.12183	1577.57446	264.85818	886.19879	1578.95581	17.00560	883.47913	1525.47144	190.74126	955.17700	1343.70544	275.06335	490.18863	1665.30640	77.59657	452.15549	1433.76196	281.41483	165.50049	1719.10242	114.91902	149.98500	1281.64221	
458	4.570	119.20939	1493.48035	1703.91357	262.70883	1575.40210	1576.52734				37.55787	1538.14722	1587.71606	356.70059	1362.95593	1496.59229	5.69619	1366.84827	1415.62268	159.99944	1238.60547	1578.05286	183.83221	1411.85132	1410.01709	426.38779	1029.26819	1473.25403	-90.76044	1023.94440	1414.49988	429.77072	844.16632	1566.16284	-101.64129	870.15710	1582.82117	265.17044	886.61328	1590.05713	17.77701	882.04077	1534.95825	191.35622	954.10114	1353.77783	276.09146	489.82748	1674.04895	78.13609	451.24738	1441.95459	280.92221	163.66333	1723.90100	114.56063	151.74960	1283.88562	
459	4.580	118.87506	1494.02466	1713.26917							37.70490	1536.93909	1595.22327	358.01596	1362.24170	1507.35144	7.63544	1366.22363	1422.86108	160.58112	1238.78625	1587.43262	185.63313	1411.50073	1419.21729	427.77853	1029.31494	1484.05664	-88.91831	1023.68488	1421.34204	432.90909	844.22601	1577.60217	-100.70889	868.62091	1589.42761	265.91489	886.62640	1600.90967	17.57882	882.08551	1546.10022	192.14604	953.90417	1364.46521	275.07843	488.98975	1681.37610	78.74435	450.43463	1450.78638	281.03479	163.09966	1729.73987	115.74057	153.71536	1286.20349	
460	4.590	118.22245	1493.63318	1721.33301	262.29266	1577.53540	1595.42761				37.84608	1536.45313	1601.93127	359.25699	1361.79004	1516.82886	9.78031	1366.95447	1434.55371	161.65710	1239.20117	1597.18689	187.80885	1411.31006	1428.88623	429.41394	1028.40942	1494.32629	-87.52164	1024.44287	1428.28833	433.99240	844.12689	1589.42529	-100.03950	868.96564	1598.42371	265.48413	886.92255	1611.80212	17.88172	880.77234	1556.40991	192.17075	953.83160	1374.36768	274.51663	489.03323	1689.63452	78.56860	449.79791	1460.46167	280.59308	162.50909	1732.76880	115.37651	155.99271	1289.19568	
461	4.600	117.55000	1494.62683	1728.80884	262.28775	1577.99084	1604.00598				37.86149	1536.24194	1611.02161	360.49741	1361.63538	1527.01172	11.59201	1367.23022	1441.66577	162.19771	1239.43140	1606.52698	189.80188	1411.50635	1437.69885	430.41849	1028.46045	1506.02869	-85.51622	1023.70551	1434.97266	435.69702	844.10535	1600.22791	-99.99460	865.57782	1597.28625	266.00403	887.78650	1622.94446	18.57006	880.15167	1565.33411	192.92584	954.17340	1384.79700	274.12863	490.13535	1700.01233	78.64839	448.87778	1470.97412	280.47037	161.19958	1735.59338	115.25706	159.50174	1293.21558	
462	4.610	116.57675	1495.32397	1738.82837	261.64801	1580.11926	1614.37927				37.58796	1535.73853	1619.93933	361.61594	1361.83289	1537.58667	12.99857	1367.89539	1450.32922	162.67926	1240.41321	1615.37061	191.74551	1412.14063	1446.79749	432.12839	1027.85632	1518.36975	-83.96585	1024.90173	1442.08936	435.86954	843.51550	1611.48010	-99.42793	864.28925	1601.64343	266.02069	888.75732	1633.37891	18.03769	880.85284	1577.03052	192.93666	954.51086	1395.19348	274.00549	491.48187	1707.96411	78.56091	448.23370	1482.48840	281.55185	160.31306	1738.33899	115.50546	162.88237	1297.26660	
463	4.620	115.59845	1495.62256	1747.06238	262.03616	1581.14331	1623.69666				37.71752	1535.63184	1626.20923	362.63708	1362.18469	1547.20605	14.60063	1368.63318	1459.12659	163.12068	1241.85254	1625.60034	193.50117	1412.96387	1455.64709	433.35458	1028.28870	1529.35657	-82.46561	1025.37976	1448.08569	437.97125	844.38812	1623.64478	-98.32415	863.05389	1605.85181	265.64941	891.25134	1643.40796	18.62042	880.51044	1586.58997	192.91833	955.98804	1404.61279	274.07358	491.20700	1716.22644	77.52206	447.07129	1495.30481	281.79419	160.62617	1740.85010	115.59063	167.18465	1301.71692	
464	4.630	114.23470	1496.58240	1754.85156	261.18924	1583.17090	1634.62268				36.83624	1537.01721	1635.55701	363.79358	1362.69568	1557.58301	16.31081	1369.62708	1467.94287	163.97647	1243.20715	1634.18616	195.09656	1414.18030	1464.77100	434.83316	1029.22754	1540.38574	-80.22534	1026.54614	1454.76843	438.98907	845.67627	1635.62842	-97.47056	862.41302	1609.28369	265.50122	892.15662	1653.55164	19.33669	880.99994	1596.09253	192.08623	956.39758	1415.19397	274.36636	491.77628	1723.67761	75.69193	447.41229	1510.13416	281.57321	160.49034	1742.02612	114.85371	172.16129	1308.02173	
465	4.640	113.14886	1498.74878	1764.26001	260.60727	1584.29468	1644.12109				37.58666	1536.99841	1642.44397	364.70438	1363.58960	1566.85144	17.36806	1371.04517	1475.77710	164.54404	1244.84241	1642.92920	196.72350	1415.16174	1474.39978	435.36673	1030.00427	1552.95081	-78.35133	1028.96252	1461.12219	439.02670	846.38104	1647.22327	-96.92227	862.27966	1613.75952	265.54382	894.38312	1663.18982	19.41341	882.38232	1606.62097	191.84557	957.52527	1423.36243	274.51804	493.50595	1732.74609	75.10783	446.22028	1525.89429	281.43756	159.95555	1743.97485	114.55146	176.87529	1315.25830	
466	4.650	111.35589	1498.97961	1771.60950	260.60150	1585.62732	1652.51392				36.46448	1538.55481	1650.40198	365.23480	1364.64087	1577.63611	18.66190	1372.62720	1484.90710	164.15413	1246.98779	1652.09607	198.04938	1416.67639	1482.20508	436.13867	1031.09180	1565.68115	-75.65031	1029.70190	1467.01331	439.60880	847.81531	1661.25586	-96.05410	861.16479	1616.80884	264.91217	897.48792	1673.55078	20.11624	883.67731	1616.11731	191.05685	958.40051	1433.97119	274.75885	492.40527	1736.54089	72.63747	446.23630	1543.09509	282.23267	160.01390	1746.46033	114.17079	182.71573	1324.08826	
